<svg width="26" height="28" viewBox="0 0 26 28" fill="none" xmlns="http://www.w3.org/2000/svg">
<g id="_&#208;&#160;&#208;&#129;&#208;&#160;&#194;&#176;&#208;&#161;&#208;&#130;_1" clip-path="url(#clip0_3_196)">
<path id="Vector" d="M10.5921 18.3528C7.93981 20.9505 3.91943 20.6604 1.64524 18.2013C-0.577614 15.7975 -0.544206 12.0868 1.72428 9.71643C3.99766 7.34039 7.95692 7.07557 10.5847 9.64391C10.6809 9.58769 10.786 9.53228 10.8854 9.46873C12.454 8.47137 14.0217 7.47076 15.5935 6.4783C15.7622 6.37156 15.8192 6.28274 15.7671 6.066C15.1152 3.35506 16.7685 0.717452 19.4827 0.115293C22.1203 -0.469755 24.7245 1.24872 25.2883 3.94581C25.9443 7.08372 23.2822 10.0595 20.0979 9.74821C19.0019 9.64147 18.4446 9.40517 17.2158 8.52515C15.9871 9.30657 14.7534 10.0913 13.5189 10.8768C13.0732 11.1603 12.6308 11.4488 12.1802 11.7242C12.036 11.813 11.9928 11.8937 12.0498 12.0664C12.4711 13.3522 12.4646 14.6405 12.062 15.932C12.0351 16.0191 12.0669 16.1886 12.1305 16.2294C13.8212 17.3188 15.5194 18.396 17.2264 19.4822C17.9386 18.8678 18.7453 18.4734 19.666 18.299C22.3142 17.7979 24.9885 19.734 25.3266 22.4082C25.6762 25.1697 23.8779 27.5449 21.1295 27.9515C18.5505 28.3329 16.0107 26.4042 15.6709 23.8163C15.5845 23.1611 15.6212 22.5215 15.7695 21.8802C15.7899 21.7922 15.7402 21.6317 15.6701 21.5861C14.082 20.5626 12.4866 19.5498 10.8919 18.5353C10.7982 18.4759 10.7021 18.4188 10.5921 18.352V18.3528Z" fill="white"/>
</g>
<defs>
<clipPath id="clip0_3_196">
<rect width="25.3877" height="28" fill="white"/>
</clipPath>
</defs>
</svg>
