<svg width="33" height="30" viewBox="0 0 33 30" fill="none" xmlns="http://www.w3.org/2000/svg">
<g id="_&#208;&#160;&#208;&#129;&#208;&#160;&#194;&#176;&#208;&#161;&#208;&#130;_1" clip-path="url(#clip0_3_199)">
<path id="Vector" d="M32.6956 15.1911C32.5387 15.7643 32.3681 16.3308 31.9722 16.8016C31.3103 17.5864 30.4709 17.9959 29.4404 18.0096C29.263 18.0096 29.0855 18.0096 28.874 18.0096V18.3917C28.874 19.9886 28.874 21.5855 28.874 23.1824C28.874 23.4964 28.9013 23.8171 28.5328 23.9672C28.1711 24.1106 27.9595 23.8717 27.7479 23.6397C26.9563 22.7662 26.1579 21.8926 25.3662 21.0191C25.2912 20.9372 25.2093 20.8553 25.1069 20.7461C25.0387 21.0601 25.0045 21.3535 24.9226 21.6333C24.4995 23.0187 23.4008 23.899 21.954 23.9672C20.985 24.0082 20.0159 23.9945 19.0469 24.0014C17.0678 24.0082 15.0887 24.015 13.1096 24.015C12.8776 24.015 12.7206 24.0764 12.5637 24.2539C10.9531 26.0419 9.33575 27.8162 7.71837 29.5974C7.62283 29.6997 7.53411 29.8089 7.42492 29.8908C7.06323 30.157 6.63329 29.9864 6.55823 29.5428C6.53775 29.4268 6.53775 29.3107 6.53775 29.1947C6.53775 27.6115 6.53775 26.0214 6.53775 24.4381C6.53775 24.3153 6.53775 24.1924 6.53775 24.0287C6.02592 24.0287 5.54822 24.0287 5.07051 24.0287C4.27206 24.015 3.46678 24.0764 2.68198 23.9604C1.11237 23.7011 0.00681572 22.3567 -8.66363e-06 20.7666C-0.00683305 16.9381 -0.00683305 13.1028 -8.66363e-06 9.27434C-8.66363e-06 7.54095 1.33075 6.1283 3.06414 6.05323C4.44267 5.99181 5.82802 6.02593 7.21337 6.01911C7.33621 6.01911 7.46587 6.01911 7.62283 6.01911C7.62283 5.60965 7.62283 5.24113 7.62283 4.87261C7.62283 4.26524 7.60236 3.65787 7.6433 3.05732C7.75249 1.32393 9.14467 0 10.8849 0C17.0541 0 23.2234 0.0204732 29.3994 0.0409463C31.0305 0.0409463 32.252 1.04413 32.6342 2.63421C32.6479 2.69563 32.6752 2.75023 32.6956 2.80482V15.1911ZM7.62965 27.9527C7.62965 27.9527 7.67743 27.98 7.70472 27.9936C7.77297 27.9186 7.83439 27.8367 7.90263 27.7616C9.24703 26.2807 10.5983 24.8066 11.9358 23.3189C12.1815 23.0459 12.4477 22.9231 12.823 22.9163C15.7507 22.9163 18.6715 22.9026 21.5992 22.8753C21.995 22.8753 22.4181 22.8071 22.773 22.6501C23.6601 22.2407 23.9877 21.4695 23.9877 20.5209C23.9809 16.8426 23.9877 13.1574 23.9877 9.47907C23.9877 9.36988 23.9877 9.26752 23.9741 9.15833C23.8785 7.92311 23.0118 7.09054 21.7766 7.09054C15.6347 7.09054 9.49954 7.11101 3.35759 7.13148C1.97224 7.13148 1.09872 8.04595 1.09872 9.4313C1.09872 13.1642 1.09872 16.8972 1.09872 20.6369C1.09872 22.0291 2.00636 22.9231 3.40536 22.9299C4.54503 22.9299 5.6847 22.9299 6.81755 22.9299C7.48634 22.9299 7.63648 23.0801 7.63648 23.7625C7.63648 25.0523 7.63648 26.3353 7.63648 27.6251C7.63648 27.7411 7.63648 27.8503 7.63648 27.9663L7.62965 27.9527ZM8.72156 5.99864C8.86487 5.99864 8.96723 6.01228 9.0696 6.01228C9.75886 6.01228 10.455 6.01228 11.1442 6.01228C14.6656 6.01228 18.187 6.01228 21.7084 5.99864C22.4659 5.99864 23.162 6.19654 23.7625 6.6606C24.677 7.35669 25.0728 8.29845 25.066 9.4313C25.066 12.5296 25.066 15.6278 25.0591 18.7193C25.0591 18.9718 25.1342 19.1561 25.3048 19.3403C26.0555 20.1524 26.7994 20.9713 27.5432 21.7903C27.6046 21.8585 27.6456 21.9404 27.7002 22.0155C27.7275 21.995 27.7548 21.9745 27.7821 21.9609C27.7821 21.8449 27.7821 21.7357 27.7821 21.6197C27.7821 20.2889 27.7821 18.9581 27.7821 17.6274C27.7821 17.136 27.9868 16.9313 28.485 16.9245C28.7375 16.9245 28.9968 16.9245 29.2493 16.9245C30.7302 16.9245 31.6037 16.0441 31.6037 14.5564C31.6037 10.8712 31.5833 7.1929 31.6105 3.50773C31.6242 2.09509 30.6415 1.11237 29.222 1.1192C23.4622 1.13285 17.7093 1.09873 11.9495 1.08508C11.6014 1.08508 11.2466 1.07825 10.8985 1.08508C9.67697 1.11237 8.81027 1.92448 8.72838 3.14604C8.69426 3.65787 8.71473 4.1697 8.71473 4.6747C8.71473 5.10464 8.71473 5.5414 8.71473 5.99181L8.72156 5.99864Z" fill="#3A3A3A"/>
<path id="Vector_2" d="M12.55 15.7984C10.2843 15.7984 8.01865 15.7984 5.75295 15.7984C5.61647 15.7984 5.47315 15.7984 5.34349 15.7711C5.06369 15.7166 4.92038 15.5323 4.92038 15.2525C4.92038 14.9727 5.06369 14.7884 5.34349 14.7338C5.46633 14.7065 5.59599 14.7065 5.72566 14.7065C10.2639 14.7065 14.8021 14.7065 19.3471 14.7065C19.8931 14.7065 20.1592 14.884 20.1592 15.2525C20.1592 15.621 19.8931 15.7984 19.3471 15.7984C17.0814 15.7984 14.8157 15.7984 12.55 15.7984Z" fill="#3A3A3A"/>
<path id="Vector_3" d="M12.5364 17.9824C14.7816 17.9824 17.0268 17.9824 19.2721 17.9824C19.3676 17.9824 19.4631 17.9824 19.5587 17.9824C19.9272 18.0029 20.1524 18.2076 20.1524 18.5147C20.1524 18.815 19.9272 19.0334 19.5723 19.0675C19.4904 19.0743 19.4017 19.0675 19.3198 19.0675C14.7953 19.0675 10.2707 19.0675 5.75295 19.0675C5.60282 19.0675 5.45268 19.0675 5.30937 19.0266C5.03639 18.9583 4.90673 18.7604 4.92038 18.4806C4.94085 18.2145 5.09099 18.0507 5.35031 18.0029C5.47315 17.9824 5.60282 17.9824 5.73248 17.9824C7.99818 17.9824 10.2639 17.9824 12.5296 17.9824H12.5364Z" fill="#3A3A3A"/>
<path id="Vector_4" d="M8.97407 12.5226C7.84804 12.5226 6.72202 12.5226 5.596 12.5226C5.33667 12.5226 5.11147 12.4748 4.9818 12.2223C4.83849 11.9425 4.96815 11.5945 5.26843 11.4921C5.39809 11.4511 5.5414 11.4375 5.67789 11.4375C7.88899 11.4375 10.1001 11.4375 12.3112 11.4375C12.3658 11.4375 12.4204 11.4375 12.4682 11.4375C12.8435 11.458 13.0892 11.6832 13.0823 11.9903C13.0823 12.3042 12.8367 12.5226 12.4545 12.5226C11.2944 12.5226 10.1342 12.5226 8.98089 12.5226H8.97407Z" fill="#3A3A3A"/>
</g>
<defs>
<clipPath id="clip0_3_199">
<rect width="32.6956" height="30" fill="white"/>
</clipPath>
</defs>
</svg>
