<svg width="28" height="28" viewBox="0 0 28 28" fill="none" xmlns="http://www.w3.org/2000/svg">
<g id="_&#208;&#160;&#208;&#129;&#208;&#160;&#194;&#176;&#208;&#161;&#208;&#130;_1" clip-path="url(#clip0_3_193)">
<path id="Vector" d="M21.7789 28.0005C21.48 27.9123 21.1618 27.8587 20.8782 27.7322C19.5366 27.1227 18.1798 26.5401 16.8765 25.854C14.3161 24.501 11.955 22.8451 9.78934 20.9171C7.93418 19.2651 6.28216 17.4291 4.82562 15.4168C3.09311 13.0212 1.69023 10.4454 0.5595 7.71631C0.0880424 6.57791 -0.149603 5.40118 0.0995414 4.17846C0.383183 2.77558 1.19578 1.72918 2.38017 0.962578C2.99345 0.563947 3.65272 0.253475 4.36949 0.0886563C5.25108 -0.110659 6.05984 0.0311615 6.76895 0.625275C7.71569 1.42254 8.51296 2.35779 9.20673 3.37353C9.843 4.30495 10.4256 5.27853 10.9469 6.2751C11.6292 7.58215 11.1117 8.72822 10.0883 9.51398C9.912 9.64814 9.73185 9.77079 9.55553 9.90495C8.67011 10.5834 8.44396 11.3193 8.83493 12.3542C9.30255 13.5846 9.99249 14.6885 10.8549 15.6774C12.0891 17.0995 13.6032 18.142 15.3012 18.9278C15.8416 19.177 16.4204 19.3916 16.9762 19.0543C17.2982 18.8588 17.5588 18.5368 17.7965 18.2302C18.2104 17.7013 18.6627 17.2298 19.2837 16.95C20.1269 16.5667 20.9932 16.6165 21.7828 17.0343C22.6107 17.4713 23.3965 17.9926 24.1631 18.5292C25.0025 19.1195 25.8151 19.7481 26.6085 20.3958C27.9462 21.4921 28.2145 22.7225 27.3981 24.248C26.3517 26.2105 24.7687 27.5099 22.5417 27.9468C22.5149 27.9507 22.4957 27.9775 22.4727 27.9928H21.7828L21.7789 28.0005Z" fill="white"/>
</g>
<defs>
<clipPath id="clip0_3_193">
<rect width="27.8582" height="28" fill="white"/>
</clipPath>
</defs>
</svg>
